<svg xmlns="http://www.w3.org/2000/svg" viewBox="0 0 85.58 85.58"><defs><style>.cls-1{fill:#fff;}.cls-2,.cls-3{stroke:#000;stroke-miterlimit:10;stroke-width:1.54px;}.cls-3{fill:none;}</style></defs><title>ball</title><g id="Capa_2" data-name="Capa 2"><g id="Capa_1-2" data-name="Capa 1"><g id="Ball"><circle class="cls-1" cx="42.79" cy="42.79" r="42.02"/><path d="M42.79,1.54A41.25,41.25,0,1,1,1.54,42.79,41.3,41.3,0,0,1,42.79,1.54m0-1.54A42.79,42.79,0,1,0,85.58,42.79,42.79,42.79,0,0,0,42.79,0Z"/><polygon points="29.3 48.72 34.48 32.82 51.2 32.82 56.36 48.73 42.83 58.55 29.3 48.72"/><path d="M35,33.59h15.6l4.81,14.84L42.83,57.59,30.21,48.42,35,33.59M33.92,32,28.4,49,42.83,59.5,57.27,49l-5.51-17Z"/><path class="cls-2" d="M24.13,18.86S26.42,7.54,27.07,4C20.79,7,11.81,14.36,7.42,20.43,10.71,20,24.13,18.86,24.13,18.86Z"/><line class="cls-3" x1="34.69" y1="33.06" x2="23.99" y2="18.8"/><path d="M42.13,84.05a40.1,40.1,0,0,1-9.15-1c2.88-2.54,8.32-7.25,9.9-8.62,1.9,1.23,8.75,5.65,12.27,7.81A46.68,46.68,0,0,1,42.13,84.05Z"/><path d="M43,75.44c2,1.32,6.89,4.44,10.29,6.56a47.71,47.71,0,0,1-11.12,1.28,42,42,0,0,1-7.47-.63c2.72-2.39,6.58-5.73,8.3-7.21m-.14-1.93s-8.74,7.55-11.42,10a38.73,38.73,0,0,0,10.73,1.35A45.12,45.12,0,0,0,57,82.48c-2.87-1.66-14.18-9-14.18-9Z"/><line class="cls-3" x1="42.94" y1="58.39" x2="42.94" y2="74.71"/><path d="M77,19.7c-3.85-.08-11-.28-13.12-.34C63.25,17.16,61.18,9.24,60,5.27A45.4,45.4,0,0,1,77,19.7Z"/><path d="M61.26,6.74A46.9,46.9,0,0,1,75.42,18.89c-3.63-.08-8.73-.22-11-.29-.63-2.38-2.1-8-3.17-11.86M58.84,3.91c1,3.17,4.38,16.2,4.38,16.2s11.55.34,15.15.38C74.75,14.44,66.55,7,58.84,3.91Z"/><line class="cls-3" x1="51.02" y1="32.93" x2="64.12" y2="19.1"/><path d="M75.79,67.82c-1.2-3.67-3.36-10.49-4-12.47,1.89-1.26,8.65-5.8,12-8.18A49.6,49.6,0,0,1,75.79,67.82Z"/><path d="M82.81,48.82A50.2,50.2,0,0,1,76,66.07c-1.12-3.44-2.65-8.25-3.32-10.4,2-1.36,6.79-4.57,10.09-6.85m1.93-3.26C82.08,47.54,70.89,55,70.89,55s3.48,11,4.63,14.42c4.3-5.4,8.77-15.71,9.22-23.9Z"/><line class="cls-3" x1="56.3" y1="48.31" x2="72.15" y2="55.61"/><path d="M9.91,67.84C6.13,62.69,2.34,54.05,1.8,47.11c3.36,2.37,10.21,7,12.11,8.24C13.28,57.34,11.11,64.18,9.91,67.84Z"/><path d="M2.76,48.72c3.3,2.29,8.17,5.57,10.23,7-.68,2.16-2.22,7-3.34,10.46A46.39,46.39,0,0,1,2.76,48.72M1,45.56c0,7.88,4.79,18.5,9.22,23.9C11.34,66.05,14.82,55,14.82,55S3.63,47.54,1,45.56Z"/><line class="cls-3" x1="29.58" y1="48.48" x2="12.82" y2="55.79"/></g></g></g></svg>