<svg xmlns="http://www.w3.org/2000/svg" viewBox="0 0 68.68 84.8"><defs><style>.cls-1,.cls-2{fill:#fff;}.cls-2{stroke:#000;stroke-miterlimit:10;stroke-width:1.68px;}</style></defs><title>Recurso 4</title><g id="Capa_2" data-name="Capa 2"><g id="Capa_1-2" data-name="Capa 1"><g id="Field"><rect class="cls-1" x="0.84" y="0.84" width="67.01" height="83.12"/><path d="M67,1.68V83.12H1.68V1.68H67M68.68,0H0V84.8H68.68V0Z"/><line class="cls-2" x1="68.43" y1="42.4" x2="0.25" y2="42.4"/><path d="M54.8,1.68V11H13.89V1.68H54.8M56.47,0H12.21V12.66H56.47V0Z"/><path d="M54.8,73.81v9.31H13.89V73.81H54.8m1.67-1.68H12.21V84.8H56.47V72.13Z"/><path d="M34.34,31A11.67,11.67,0,0,1,46.25,42.4,11.67,11.67,0,0,1,34.34,53.8,11.67,11.67,0,0,1,22.43,42.4,11.67,11.67,0,0,1,34.34,31m0-1.52A13.18,13.18,0,0,0,20.91,42.4,13.18,13.18,0,0,0,34.34,55.32,13.18,13.18,0,0,0,47.77,42.4,13.18,13.18,0,0,0,34.34,29.48Z"/></g></g></g></svg>