<svg xmlns="http://www.w3.org/2000/svg" viewBox="0 0 70.86 90"><defs><style>.cls-1{fill:#fff;}</style></defs><title>schedule</title><g id="Capa_2" data-name="Capa 2"><g id="Capa_1-2" data-name="Capa 1"><g id="Schedule"><rect class="cls-1" x="1.39" y="5.5" width="67.88" height="82.86"/><path d="M69.78,90H1.08A1.28,1.28,0,0,1,0,88.59V5.51A1.28,1.28,0,0,1,1.08,4.1h68.7a1.28,1.28,0,0,1,1.08,1.41V88.59A1.28,1.28,0,0,1,69.78,90ZM2.16,87.17H68.7V6.93H2.16Z"/><path d="M69.78,36.75H1.08c-.6,0-1.08-.63-1.08-1.42V5.51A1.28,1.28,0,0,1,1.08,4.1h68.7a1.28,1.28,0,0,1,1.08,1.41V35.33C70.86,36.12,70.38,36.75,69.78,36.75ZM2.16,33.92H68.7v-27H2.16Z"/><path d="M16.48,21.18c-2.07,0-3.77-2.21-3.77-4.93s1.7-4.93,3.77-4.93,3.77,2.21,3.77,4.93S18.56,21.18,16.48,21.18Zm0-7a1.9,1.9,0,0,0-1.6,2.1,1.9,1.9,0,0,0,1.6,2.1,1.9,1.9,0,0,0,1.61-2.1A1.9,1.9,0,0,0,16.48,14.15Z"/><path d="M16.48,16.83a1.28,1.28,0,0,1-1.08-1.41v-14A1.28,1.28,0,0,1,16.48,0a1.28,1.28,0,0,1,1.08,1.41v14A1.28,1.28,0,0,1,16.48,16.83Z"/><path d="M35.43,21.18c-2.08,0-3.77-2.21-3.77-4.93s1.69-4.93,3.77-4.93,3.77,2.21,3.77,4.93S37.51,21.18,35.43,21.18Zm0-7a1.9,1.9,0,0,0-1.6,2.1,1.9,1.9,0,0,0,1.6,2.1A1.9,1.9,0,0,0,37,16.25,1.9,1.9,0,0,0,35.43,14.15Z"/><path d="M35.43,16.83a1.28,1.28,0,0,1-1.08-1.41v-14A1.28,1.28,0,0,1,35.43,0a1.28,1.28,0,0,1,1.08,1.41v14A1.28,1.28,0,0,1,35.43,16.83Z"/><path d="M54.38,21.18c-2.08,0-3.77-2.21-3.77-4.93s1.69-4.93,3.77-4.93,3.77,2.21,3.77,4.93S56.46,21.18,54.38,21.18Zm0-7a1.9,1.9,0,0,0-1.6,2.1,1.9,1.9,0,0,0,1.6,2.1A1.9,1.9,0,0,0,56,16.25,1.9,1.9,0,0,0,54.38,14.15Z"/><path d="M54.38,16.83a1.28,1.28,0,0,1-1.08-1.41v-14a1.12,1.12,0,1,1,2.16,0v14A1.28,1.28,0,0,1,54.38,16.83Z"/><path d="M32.47,80.44H7.78A1.45,1.45,0,0,1,6.72,80a1.42,1.42,0,0,1-.35-1.1A18.46,18.46,0,0,1,9,71.26c1.42-2.35,4.09-5.33,8.17-9.12C21,58.57,22.33,57,22.78,56.36A6.3,6.3,0,0,0,24,52.85a3.54,3.54,0,0,0-.85-2.62,3.34,3.34,0,0,0-2.5-.85,3.29,3.29,0,0,0-2.5.9A5.62,5.62,0,0,0,17,53.79a1.47,1.47,0,0,1-.5,1,1.44,1.44,0,0,1-1.06.33l-7-.7a1.42,1.42,0,0,1-1-.52,1.4,1.4,0,0,1-.31-1c.45-4.26,2-7.4,4.48-9.32a14.61,14.61,0,0,1,9.13-2.83c4,0,7.19,1.12,9.52,3.32a11,11,0,0,1,3.56,8.33,14.23,14.23,0,0,1-1,5.24,20.51,20.51,0,0,1-3,5.06A44.93,44.93,0,0,1,25.1,67.5c-2.09,1.93-3.18,3-3.75,3.56H32.47a1.43,1.43,0,0,1,1.42,1.42V79A1.43,1.43,0,0,1,32.47,80.44Zm-23-2.83H31.06V73.89H18.48a1.42,1.42,0,0,1-1.22-.7,1.39,1.39,0,0,1,0-1.42,13.27,13.27,0,0,1,1.6-2.18c.64-.72,2.06-2.08,4.33-4.17a44.09,44.09,0,0,0,4.46-4.52,18.26,18.26,0,0,0,2.62-4.35,11.4,11.4,0,0,0,.79-4.2,8.2,8.2,0,0,0-2.67-6.27c-1.79-1.69-4.34-2.55-7.58-2.55a12,12,0,0,0-7.41,2.24,9.33,9.33,0,0,0-3.18,6l4.16.41a6.91,6.91,0,0,1,1.74-3.85,6,6,0,0,1,4.52-1.76,6.1,6.1,0,0,1,4.5,1.69,6.27,6.27,0,0,1,1.68,4.62A9.23,9.23,0,0,1,25.13,58a50.5,50.5,0,0,1-6.06,6.26c-3.83,3.56-6.42,6.42-7.68,8.51A15.9,15.9,0,0,0,9.44,77.61Z"/><path d="M49.07,81.06a13.54,13.54,0,0,1-9.21-3.22,12.69,12.69,0,0,1-4.28-8.41,1.41,1.41,0,0,1,1.23-1.57L43.63,67a1.42,1.42,0,0,1,1.58,1.23,5.08,5.08,0,0,0,1.33,3.14,3.43,3.43,0,0,0,2.48,1,3.34,3.34,0,0,0,2.62-1.18,5.05,5.05,0,0,0,1.13-3.52,4.62,4.62,0,0,0-1.06-3.26c-1.23-1.33-2.74-1.33-5.29-.62a1.41,1.41,0,0,1-1.31-.29,1.44,1.44,0,0,1-.48-1.26l.78-5.74a1.4,1.4,0,0,1,1.44-1.23h.26a4.64,4.64,0,0,0,3.13-.9,3,3,0,0,0,1-2.43,2.4,2.4,0,0,0-2.62-2.65,2.81,2.81,0,0,0-2.09.85A4.57,4.57,0,0,0,45.41,53a1.41,1.41,0,0,1-1.64,1.23l-6.5-1.1a1.42,1.42,0,0,1-1.15-1.68,16,16,0,0,1,2.27-5.85A10.59,10.59,0,0,1,42.77,42a14.16,14.16,0,0,1,6.07-1.28,12.31,12.31,0,0,1,9.35,3.75,10.06,10.06,0,0,1,3,7.09,9.18,9.18,0,0,1-3.6,7.35,9.6,9.6,0,0,1,3,2.52A10.2,10.2,0,0,1,62.82,68a12.47,12.47,0,0,1-4,9.27A13.62,13.62,0,0,1,49.07,81.06ZM38.62,70.49a9.56,9.56,0,0,0,3.11,5.22,10.63,10.63,0,0,0,7.34,2.52,10.74,10.74,0,0,0,7.82-3A9.62,9.62,0,0,0,60,68a7.41,7.41,0,0,0-1.58-4.81,7.17,7.17,0,0,0-4.25-2.53A1.41,1.41,0,0,1,53.78,58c3.06-1.68,4.55-3.8,4.55-6.49a7.2,7.2,0,0,0-2.19-5.14,9.49,9.49,0,0,0-7.3-2.87,11.48,11.48,0,0,0-4.88,1,7.87,7.87,0,0,0-3.24,2.65,11.48,11.48,0,0,0-1.48,3.39l3.63.62a6.55,6.55,0,0,1,1.7-3.05,5.63,5.63,0,0,1,4.07-1.66A5.31,5.31,0,0,1,52.58,48,5.37,5.37,0,0,1,54.09,52a5.79,5.79,0,0,1-2,4.56,6.87,6.87,0,0,1-4.06,1.56l-.34,2.54a10.86,10.86,0,0,1,1.56-.12,5.94,5.94,0,0,1,4.53,2,7.39,7.39,0,0,1,1.8,5.17,7.81,7.81,0,0,1-1.86,5.41,6.38,6.38,0,0,1-9.16.35A7.17,7.17,0,0,1,42.66,70Z"/></g></g></g></svg>