<svg xmlns="http://www.w3.org/2000/svg" viewBox="0 0 89.72 87.74"><defs><style>.cls-1{fill:#fff;}</style></defs><title>shirt</title><g id="Capa_2" data-name="Capa 2"><g id="Capa_1-2" data-name="Capa 1"><g id="Shirt"><path class="cls-1" d="M21.45,87V40.05l-5.21,9.74L1,41.55,13.76,10.83,35.33.91l.71.63a13.13,13.13,0,0,0,8.7,3.29,13.13,13.13,0,0,0,8.69-3.29l.71-.63,21.52,9.92L88.73,41.55,73.47,49.79,68.32,40V87Z"/><path d="M35.2,1.82l.33.29A13.88,13.88,0,0,0,44.74,5.6a13.87,13.87,0,0,0,9.2-3.49l.33-.29,20.79,9.59L87.75,41.2l-14,7.53-3.33-6.32-2.91-5.53V86.19H22.23V37L19.32,42.4l-3.39,6.34L2,41.2l12.4-29.79L35.2,1.82M54,0,52.92,1a12.35,12.35,0,0,1-8.18,3.09A12.36,12.36,0,0,1,36.55,1L35.47,0,13.16,10.26,0,41.89l16.56,9,4.12-7.71V87.74H69.1V43.13l4.05,7.71,16.57-9L76.25,10.26,54,0Z"/></g></g></g></svg>